<svg xmlns="http://www.w3.org/2000/svg" width="69.795" height="69.795" viewBox="0 0 69.795 69.795">
  <g id="Outline" transform="translate(-2 -2)">
    <path id="Caminho_71" data-name="Caminho 71" d="M65.979,2H7.816A5.823,5.823,0,0,0,2,7.816v44.2a5.823,5.823,0,0,0,5.816,5.816H27.285a18.065,18.065,0,0,1-4.825,6.98H20.612a3.49,3.49,0,0,0-3.49,3.49v2.327A1.163,1.163,0,0,0,18.286,71.8H55.51a1.163,1.163,0,0,0,1.163-1.163V68.306a3.49,3.49,0,0,0-3.49-3.49H51.336a18.065,18.065,0,0,1-4.825-6.98H65.979A5.823,5.823,0,0,0,71.8,52.02V7.816A5.823,5.823,0,0,0,65.979,2Zm-12.8,65.142a1.163,1.163,0,0,1,1.163,1.163v1.163h-34.9V68.306a1.163,1.163,0,0,1,1.163-1.163Zm-5.071-2.327H25.683a16.867,16.867,0,0,0,4-6.98H44.122A16.867,16.867,0,0,0,48.113,64.816Zm21.356-12.8a3.49,3.49,0,0,1-3.49,3.49H7.816a3.49,3.49,0,0,1-3.49-3.49V48.53H69.469ZM17.122,46.2V20.612a1.163,1.163,0,0,1,1.163-1.163h3.49V46.2ZM41.551,36.9H32.245a3.49,3.49,0,0,0-3.49,3.49V46.2H24.1V10.143A1.163,1.163,0,0,1,25.265,8.98H48.53a1.163,1.163,0,0,1,1.163,1.163V46.2H45.041V40.387A3.49,3.49,0,0,0,41.551,36.9Zm1.163,3.49V46.2H38.061v-6.98h3.49A1.163,1.163,0,0,1,42.714,40.387Zm-6.98-1.163V46.2H31.081V40.387a1.163,1.163,0,0,1,1.163-1.163ZM52.02,46.2V19.449h3.49a1.163,1.163,0,0,1,1.163,1.163V46.2Zm17.449,0H59V20.612a3.49,3.49,0,0,0-3.49-3.49H52.02v-6.98a3.49,3.49,0,0,0-3.49-3.49H25.265a3.49,3.49,0,0,0-3.49,3.49v6.98h-3.49a3.49,3.49,0,0,0-3.49,3.49V46.2H4.327V7.816a3.49,3.49,0,0,1,3.49-3.49H65.979a3.49,3.49,0,0,1,3.49,3.49Z" fill="#69aa04"/>
    <circle id="Elipse_17" data-name="Elipse 17" cx="1" cy="1" r="1" transform="translate(35.898 50.898)" fill="#69aa04"/>
    <circle id="Elipse_18" data-name="Elipse 18" cx="1" cy="1" r="1" transform="translate(7.898 19.898)" fill="#69aa04"/>
    <path id="Caminho_72" data-name="Caminho 72" d="M8.163,7A1.163,1.163,0,0,0,7,8.163v6.98a1.163,1.163,0,0,0,2.327,0V8.163A1.163,1.163,0,0,0,8.163,7ZM39.571,22.122V20.959h1.163a2.327,2.327,0,0,0,2.327-2.327V16.306a2.327,2.327,0,0,0-2.327-2.327H39.571V12.816a2.327,2.327,0,0,0-2.327-2.327H34.918a2.327,2.327,0,0,0-2.327,2.327V13.98H31.428A2.327,2.327,0,0,0,29.1,16.306v2.327a2.327,2.327,0,0,0,2.327,2.327h1.163v1.163a2.327,2.327,0,0,0,2.327,2.327h2.327A2.327,2.327,0,0,0,39.571,22.122Zm-5.816-3.49H31.428V16.306h2.327a1.163,1.163,0,0,0,1.163-1.163V12.816h2.327v2.327a1.163,1.163,0,0,0,1.163,1.163h2.327v2.327H38.408A1.163,1.163,0,0,0,37.245,19.8v2.327H34.918V19.8A1.163,1.163,0,0,0,33.755,18.633Zm-.582,8.143H27.357a1.745,1.745,0,0,0-1.745,1.745v3.49a1.745,1.745,0,0,0,1.745,1.745h5.816a1.745,1.745,0,0,0,1.745-1.745V28.52a1.745,1.745,0,0,0-1.745-1.745Zm-.582,4.653H27.939V29.1h4.653Zm13.959.582V28.52a1.745,1.745,0,0,0-1.745-1.745H38.99a1.745,1.745,0,0,0-1.745,1.745v3.49a1.745,1.745,0,0,0,1.745,1.745h5.816A1.745,1.745,0,0,0,46.551,32.01Zm-2.327-.582H39.571V29.1h4.653Zm20.939-22.1H57.02a1.163,1.163,0,0,0-.822.341l-2.327,2.327a1.164,1.164,0,1,0,1.646,1.646L57.5,11.653h7.66a1.163,1.163,0,1,0,0-2.327Zm0,4.653H60.51a1.163,1.163,0,1,0,0,2.327h4.653a1.163,1.163,0,1,0,0-2.327Z" transform="translate(0.816 0.816)" fill="#69aa04"/>
  </g>
</svg>
