<svg xmlns="http://www.w3.org/2000/svg" width="78.991" height="78.991" viewBox="0 0 78.991 78.991">
  <path id="_2" data-name="2" d="M44.5,5a39.5,39.5,0,1,0,39.5,39.5A39.52,39.52,0,0,0,44.5,5Zm0,3.16A36.336,36.336,0,1,1,8.16,44.5,36.312,36.312,0,0,1,44.5,8.16Zm0,4.739a31.6,31.6,0,0,0-25.33,50.49A1.581,1.581,0,1,0,21.7,61.5a28.38,28.38,0,1,1,10.056,8.43,1.58,1.58,0,1,0-1.419,2.823A31.6,31.6,0,1,0,44.5,12.9Zm-.025,12.654a1.58,1.58,0,0,0-1.555,1.6v2.888c-.2.036-.408.052-.611.1h0a8.2,8.2,0,0,0-6.4,7.81,8.2,8.2,0,0,0,6.366,7.794c2.2.666,3.509.389,5.039,1.012a4.673,4.673,0,0,1,2.453,5.431,5.6,5.6,0,0,1-10.519,0,1.581,1.581,0,1,0-3.036.879,8.392,8.392,0,0,0,6.711,5.8v2.962a1.58,1.58,0,1,0,3.16,0V58.878a8.39,8.39,0,0,0,6.72-5.807,7.934,7.934,0,0,0-4.042-9.143q-.062-.032-.127-.059c-2.372-1.008-3.965-.68-5.477-1.148l-.086-.025a4.811,4.811,0,0,1,0-9.485,5.707,5.707,0,0,1,6.171,2.33,1.58,1.58,0,0,0,2.681-1.672,8.573,8.573,0,0,0-5.841-3.86V27.155a1.58,1.58,0,0,0-1.6-1.6ZM68,49.861a.79.79,0,0,0-.719.6A23.561,23.561,0,0,1,60.34,61.926.79.79,0,1,0,61.4,63.1a25.144,25.144,0,0,0,7.412-12.231.8.8,0,0,0-.812-1ZM57.7,64.151a.79.79,0,0,0-.423.133c-.328.211-.663.415-1,.611a.791.791,0,0,0,.79,1.37c.363-.209.718-.429,1.068-.654a.79.79,0,0,0-.432-1.459ZM24.785,65.508a1.58,1.58,0,0,0-1.074,2.783q.609.532,1.243,1.034a1.58,1.58,0,1,0,1.956-2.481q-.573-.451-1.12-.932a1.58,1.58,0,0,0-1.006-.4Z" transform="translate(-5 -5)" fill="#69aa04"/>
</svg>
