<svg xmlns="http://www.w3.org/2000/svg" width="69.753" height="66.281" viewBox="0 0 69.753 66.281">
  <g id="_3" data-name="3" transform="translate(-2 -2.987)">
    <path id="Caminho_73" data-name="Caminho 73" d="M23.163,54.763A1.163,1.163,0,0,0,24.325,53.6V47.788a1.163,1.163,0,1,0-2.325,0V53.6A1.163,1.163,0,0,0,23.163,54.763Zm0-11.626a1.163,1.163,0,0,0,1.163-1.163V36.163a1.163,1.163,0,0,0-2.325,0v5.813A1.163,1.163,0,0,0,23.163,43.138Z" transform="translate(3.251 5.204)" fill="#69aa04"/>
    <path id="Caminho_74" data-name="Caminho 74" d="M6.65,69.268H67.1a4.65,4.65,0,0,0,4.65-4.65V58.8a1.163,1.163,0,0,0-1.163-1.163,7.557,7.557,0,0,1,0-15.113,1.163,1.163,0,0,0,1.163-1.163V34.391a3.459,3.459,0,0,0-.71-2.093,4.224,4.224,0,0,0,.131-4.441L68.591,23.39A1.163,1.163,0,0,0,67,22.963a6.587,6.587,0,0,1-6.588-11.409,1.17,1.17,0,0,0,.425-1.588L57.74,4.6a3.245,3.245,0,0,0-4.411-1.183L5.72,30.9H5.488A3.488,3.488,0,0,0,2,34.391v6.975a1.163,1.163,0,0,0,1.163,1.163,7.557,7.557,0,1,1,0,15.113A1.163,1.163,0,0,0,2,58.8v5.813a4.65,4.65,0,0,0,4.65,4.65ZM54.492,5.427a.908.908,0,0,1,1.235.331l2.558,4.427a8.914,8.914,0,0,0,8.835,15.309l2.039,3.532a1.908,1.908,0,0,1-.053,1.991,3.467,3.467,0,0,0-.839-.114H10.37ZM4.325,59.9a9.882,9.882,0,0,0,0-19.626V34.391a1.163,1.163,0,0,1,1.163-1.163H25.251v2.325a1.163,1.163,0,0,0,2.325,0V33.229H68.266a1.163,1.163,0,0,1,1.163,1.163v5.881a9.882,9.882,0,0,0,0,19.626v4.719A2.325,2.325,0,0,1,67.1,66.943H27.576V64.618a1.163,1.163,0,0,0-2.325,0v2.325H6.65a2.325,2.325,0,0,1-2.325-2.325Z" transform="translate(0 0)" fill="#69aa04"/>
    <path id="Caminho_75" data-name="Caminho 75" d="M34.65,43.3A4.65,4.65,0,1,0,30,38.65,4.65,4.65,0,0,0,34.65,43.3Zm0-6.975a2.325,2.325,0,1,1-2.325,2.325A2.325,2.325,0,0,1,34.65,36.325ZM48.6,47.951a4.65,4.65,0,1,0,4.65,4.65A4.65,4.65,0,0,0,48.6,47.951Zm0,6.975A2.325,2.325,0,1,1,50.926,52.6,2.325,2.325,0,0,1,48.6,54.926ZM31.025,52.6a3.616,3.616,0,0,0,6.182,2.551L51.067,41.117a3.518,3.518,0,0,0,0-4.933,3.588,3.588,0,0,0-4.927,0L32.1,50.043A3.6,3.6,0,0,0,31.025,52.6Zm2.708-.907L47.78,37.827a1.163,1.163,0,1,1,1.635,1.65L35.557,53.517a1.289,1.289,0,1,1-1.824-1.823Z" transform="translate(4.552 5.041)" fill="#69aa04"/>
  </g>
</svg>
