<svg xmlns="http://www.w3.org/2000/svg" width="65.273" height="68.016" viewBox="0 0 65.273 68.016">
  <path id="_4" data-name="4" d="M60.619,41.7a12.067,12.067,0,0,0-9.026-5.1,19.283,19.283,0,0,0,5.02-9.166,3.884,3.884,0,0,0,1.212-7.459c.072-.43.011.641.034-7.431A12.462,12.462,0,0,0,45.5.009H40.435A12.461,12.461,0,0,0,28.079,12.545V20a3.881,3.881,0,0,0,1.244,7.44A19.289,19.289,0,0,0,34.341,36.6a12.067,12.067,0,0,0-9.027,5.1A20.772,20.772,0,0,0,10.33,61.621v2.862a3.547,3.547,0,0,0,3.543,3.543H72.061A3.547,3.547,0,0,0,75.6,64.483V61.621A20.772,20.772,0,0,0,60.619,41.7ZM57.035,23.631V21.208a2.448,2.448,0,0,1-.168,4.743A18.035,18.035,0,0,0,57.035,23.631Zm-29.9-.071a2.453,2.453,0,0,1,1.56-2.276,1.386,1.386,0,0,0,.2.128,31.181,31.181,0,0,0,.17,4.556A2.473,2.473,0,0,1,27.139,23.561ZM58.37,41.184a20.709,20.709,0,0,0-3.662-.3c-.63-.524-1.287-1.044-1.981-1.529a1.383,1.383,0,0,0-1.541-.042V37.984A10.625,10.625,0,0,1,58.37,41.184Zm-3.96,6.369a16.062,16.062,0,0,0,1.809,4.6,1.486,1.486,0,0,1-.42,1.9,100.377,100.377,0,0,0-9.847,9.2c2.53-4.836,5.221-10.444,6.1-15.578a16.386,16.386,0,0,0-.145-7.165A68.2,68.2,0,0,1,57.366,45.1l-2.649,1.759A.707.707,0,0,0,54.41,47.553Zm-23.194-.7L28.567,45.1c1.612-1.387,3.353-3.089,5.424-4.623a17.091,17.091,0,0,0-.113,7.2c.891,5.185,3.63,10.849,6.1,15.58a100.376,100.376,0,0,0-9.847-9.2,1.486,1.486,0,0,1-.42-1.9,16.06,16.06,0,0,0,1.809-4.6A.708.708,0,0,0,31.216,46.855Zm8.03,11.775A55.408,55.408,0,0,1,36.1,50.819a.659.659,0,0,0,.746.087l2.58-1.321a5.659,5.659,0,0,0,1.3,2.715Zm-2.5-9.265-1.494-2.1a15.779,15.779,0,0,1,.068-6.219,3.629,3.629,0,0,1,1.662.937l4.8,4.8Zm-.574-9.555V38.164a10.248,10.248,0,0,0,4.139,1.844,15.018,15.018,0,0,0,5.33-.01,10.306,10.306,0,0,0,4.132-1.839v1.655a5.126,5.126,0,0,0-1.808,1.166L42.971,45.97,37.98,40.979A5.136,5.136,0,0,0,36.169,39.81Zm6.8,7.957,2.191,1.122a4.247,4.247,0,0,1-1.035,2.5H41.808a4.255,4.255,0,0,1-1.034-2.5Zm1.189-.983,4.8-4.8a3.622,3.622,0,0,1,1.654-.934,15.783,15.783,0,0,1,.066,6.227L49.2,49.366Zm2.354,2.8L49.1,50.906a.66.66,0,0,0,.735-.077A55.447,55.447,0,0,1,46.7,58.616L45.206,52.3A5.651,5.651,0,0,0,46.514,49.582ZM29.5,12.545A11.043,11.043,0,0,1,40.435,1.426H45.5a11.043,11.043,0,0,1,10.94,11.12v7.136a23.86,23.86,0,0,0-2.511-4.108,3.18,3.18,0,0,0-3.9-.983A10.7,10.7,0,0,1,38.165,13.1a3.281,3.281,0,0,0-4.325.322A22.677,22.677,0,0,0,29.5,20.14V12.545Zm.823,11.09V21.252A35.4,35.4,0,0,1,34.867,14.4a1.86,1.86,0,0,1,2.42-.187,12.174,12.174,0,0,0,13.342,1.669,1.771,1.771,0,0,1,2.17.548c.919,1.22,2.809,4.438,2.819,4.445v2.76c0,8.036-5.85,14.178-10.232,14.972a13.626,13.626,0,0,1-4.829.01C36.206,37.836,30.32,31.7,30.32,23.635Zm4.432,14.348v1.329a1.383,1.383,0,0,0-1.542.037c-.7.487-1.354,1.008-1.985,1.532a19.088,19.088,0,0,0-3.662.3A10.626,10.626,0,0,1,34.752,37.983ZM24.529,48.606a10.549,10.549,0,0,1,1.657-5.681,19.217,19.217,0,0,1,3.322-.558c-.99.885-1.8,1.618-2.569,2.244a.709.709,0,0,0,.053,1.141l3.042,2.02a22.791,22.791,0,0,1-1.67,3.952,5.889,5.889,0,0,0-3.836-2.11V48.606Zm-10.657,18a2.128,2.128,0,0,1-2.126-2.126V61.62a19.352,19.352,0,0,1,12.5-18.073,11.924,11.924,0,0,0-1.131,5.058v1.008a5.9,5.9,0,0,0-5.184,5.846v5.516a3.988,3.988,0,0,0,3.983,3.984.708.708,0,1,0,0-1.417,2.569,2.569,0,0,1-2.566-2.567V55.459a4.476,4.476,0,1,1,8.951,0v5.516a2.569,2.569,0,0,1-2.566,2.567.708.708,0,1,0,0,1.417,3.988,3.988,0,0,0,3.983-3.984V55.52C33.1,58.16,38.06,63.31,41.28,66.608H13.873Zm26.36-5.975,1.83-7.822H43.87l1.841,7.806c-.831,1.652-1.862,3.594-2.745,5.221C42.056,64.156,41.081,62.326,40.232,60.633Zm33.954,3.85a2.128,2.128,0,0,1-2.126,2.126H44.654C47.8,63.385,53.2,57.76,56.646,55.193a2.9,2.9,0,0,0,.825-3.7,17.151,17.151,0,0,1-1.572-3.72l3.042-2.02a.709.709,0,0,0,.053-1.141c-.792-.641-1.612-1.389-2.569-2.244a19.216,19.216,0,0,1,3.322.558A10.549,10.549,0,0,1,61.4,48.606V56.18a3.969,3.969,0,1,0,1.417-.018V48.606a11.924,11.924,0,0,0-1.131-5.058,19.352,19.352,0,0,1,12.5,18.073v2.862ZM62.173,57.521a2.546,2.546,0,1,1-2.55,2.55A2.549,2.549,0,0,1,62.173,57.521Z" transform="translate(-10.33 -0.009)" fill="#69aa04"/>
</svg>
