<svg xmlns="http://www.w3.org/2000/svg" xmlns:xlink="http://www.w3.org/1999/xlink" width="73.611" height="71.164" viewBox="0 0 73.611 71.164">
  <defs>
    <clipPath id="clip-path">
      <rect id="Retângulo_155" data-name="Retângulo 155" width="73.611" height="71.164" fill="#69aa04"/>
    </clipPath>
  </defs>
  <g id="_5" data-name="5" clip-path="url(#clip-path)">
    <path id="Caminho_76" data-name="Caminho 76" d="M371.474,270.512a1.912,1.912,0,0,1-.778.983,1.438,1.438,0,1,1-1.242-2.589,1.365,1.365,0,0,1,1.639.4c.14.158.255.34.381.511Z" transform="translate(-297.863 -217.22)" fill="#69aa04"/>
    <path id="Caminho_77" data-name="Caminho 77" d="M50.818,35.49l1.444-.26a17.224,17.224,0,0,1,11.067,1.427,17.748,17.748,0,0,1,8.7,8.944,2.527,2.527,0,0,1,.257,1.109,1.374,1.374,0,0,1-.873,1.243,1.287,1.287,0,0,1-1.5-.32,3.465,3.465,0,0,1-.522-.8,15.583,15.583,0,0,0-3.324-4.765A14.808,14.808,0,0,0,58.007,38a14.319,14.319,0,0,0-8.954,1.29c-4.374,2.255-7.334,5.673-8.287,10.6A15.21,15.21,0,0,0,51.787,67.758a14.545,14.545,0,0,0,10.22-.961,16.927,16.927,0,0,0,4.108-2.884,14.493,14.493,0,0,0,3.259-4.665,3.225,3.225,0,0,1,.478-.752,1.4,1.4,0,0,1,2.381,1.266,9.306,9.306,0,0,1-1.057,2.313,17.726,17.726,0,0,1-10.862,8.439,16.812,16.812,0,0,1-8.28.252c-.443-.091-.886-.182-1.327-.277a.572.572,0,0,0-.631.211,1.308,1.308,0,0,1-.975.447c-.122.011-.245.01-.368.01q-8.219,0-16.438,0-11.615,0-23.23-.009c-1,0-2.011,0-3.014-.039a1.321,1.321,0,0,1-1.368-1.378c-.009-.13-.01-.261-.01-.391q0-4.639,0-9.279c0-.943-.023-1.888.012-2.83a8.316,8.316,0,0,1,1.57-4.683c.243-.335.474-.677.727-1.039l-.506-.154a9.58,9.58,0,0,1-4.025-2.32A8.347,8.347,0,0,1,.235,44.973a8.2,8.2,0,0,1,3.332-8.6.792.792,0,0,1,.136-.086A1.085,1.085,0,0,0,4.361,35.1q-.056-3.325-.044-6.652c.007-1.94.008-3.883.1-5.82a23.764,23.764,0,0,1,3.612-12.01,22.438,22.438,0,0,1,7.3-7.017A23.866,23.866,0,0,1,22.405.588,22.755,22.755,0,0,1,27.189,0,22.287,22.287,0,0,1,37.926,2.461,23.1,23.1,0,0,1,50.247,18.272a20.348,20.348,0,0,1,.545,4.628c.015,1.58,0,3.161,0,4.741q.008,3.81.022,7.62c0,.068,0,.136,0,.228M32.124,48.648c.107.007.183.016.258.016,1.8,0,3.591,0,5.387,0a.344.344,0,0,0,.379-.285c.118-.4.238-.793.374-1.183a17.944,17.944,0,0,1,5.3-7.883,18.566,18.566,0,0,1,3.586-2.4.874.874,0,0,0,.534-.878q-.016-.517-.016-1.035c0-1.2.014-2.409.013-3.614,0-1.3-.01-2.609-.014-3.913,0-1.427,0-2.855-.01-4.282a20.524,20.524,0,0,0-.662-5.1A20.214,20.214,0,0,0,36.626,5.034,18.74,18.74,0,0,0,29.439,3a19.066,19.066,0,0,0-6.756.49A20.277,20.277,0,0,0,10.166,12.8,19.853,19.853,0,0,0,7.5,20.017a30.347,30.347,0,0,0-.283,4.726q-.01,4.673,0,9.347c0,.682.018,1.365.038,2.047a2.065,2.065,0,0,1-1.2,2.141,5.125,5.125,0,0,0-3.13,4.779,5.416,5.416,0,0,0,3.366,5.252,6.784,6.784,0,0,0,2.621.386q6.86,0,13.721,0c.061,0,.123,0,.184,0,.174.007.244-.07.245-.248.007-.843,0-1.688.042-2.53a1.071,1.071,0,0,0-.746-1.152c-.573-.236-1.139-.5-1.69-.779a14.2,14.2,0,0,1-6.478-6.466,17.371,17.371,0,0,1-1.684-7.636c-.01-1.756.038-3.513.055-5.27a14.227,14.227,0,0,1,.6-4.057,11.618,11.618,0,0,1,3.208-5.44,9.539,9.539,0,0,1,10.365-1.932,10.159,10.159,0,0,1,3.833,2.794c.939,1.012,1.839,2.062,2.821,3.03a20.5,20.5,0,0,0,8.232,5.1,1.311,1.311,0,0,1,.964,1.168,4.588,4.588,0,0,1,.039.55c0,1.489.024,2.978-.007,4.466a22.446,22.446,0,0,1-.195,2.635,14.516,14.516,0,0,1-4.773,8.915A14.849,14.849,0,0,1,32.4,44.951a.36.36,0,0,0-.285.4c.012.545,0,1.09,0,1.635v1.66m-2.9-.011c0-.1,0-.181,0-.263q0-2.141.007-4.282a1.37,1.37,0,0,1,.936-1.408c.115-.043.229-.087.345-.127.493-.168.993-.318,1.479-.5a12.078,12.078,0,0,0,7.746-10.789c.053-1.448.03-2.9.039-4.348,0-.356-.065-.459-.4-.588a22.443,22.443,0,0,1-5.3-3.017,35,35,0,0,1-5.637-5.435,6.845,6.845,0,0,0-5.815-2.551,6.617,6.617,0,0,0-4.369,1.849,8.846,8.846,0,0,0-2.2,3.617,14.714,14.714,0,0,0-.681,4.781c-.013,1.5.017,3.007.034,4.51a14.96,14.96,0,0,0,.231,2.929,11.719,11.719,0,0,0,7.05,8.823c.769.338,1.58.579,2.372.862a1.109,1.109,0,0,1,.805.989c.033.343.071.687.074,1.031.009,1.22,0,2.44,0,3.66v.257ZM16.49,68.25h7.733c.268,0,.537.005.806,0,.465-.012.468-.02.3-.448l-2.142-5.6q-1.933-5.053-3.865-10.106c-.179-.469-.243-.523-.737-.527-1.266-.011-2.531-.028-3.8-.011a16.067,16.067,0,0,0-2.314.137,5.573,5.573,0,0,0-4.36,3.257,6.944,6.944,0,0,0-.57,3.026c-.019,3.306-.016,6.613-.02,9.92,0,.291.045.335.332.338.652.006,1.3.015,1.955.015q3.337,0,6.675,0M37.565,51.544c-.571,0-1.1.009-1.628,0-.61-.013-.8.108-1,.691-.214.63-.418,1.264-.63,1.9q-2.293,6.851-4.586,13.7c-.038.113-.064.231-.1.359H45.6a18.608,18.608,0,0,1-8.038-16.645m-15.4.059L27.5,65.492,32.16,51.6Z" transform="translate(0 0)" fill="#69aa04"/>
    <path id="Caminho_78" data-name="Caminho 78" d="M247.869,250.288c.019-.286.049-.53.05-.774,0-1.6,0-3.208,0-4.812a.961.961,0,0,0-.435-.855,1.424,1.424,0,0,1-.207-2.189,1.055,1.055,0,0,1,.768-.37c.881-.012,1.762-.008,2.643,0a.974.974,0,0,1,.393.115,1.443,1.443,0,0,1,.216,2.37,1.214,1.214,0,0,0-.519,1.088q.013,2.405.023,4.811c0,.206,0,.412,0,.685.376-.163.717-.276,1.024-.449a5.105,5.105,0,0,0,2.736-4.376c.042-.665.036-1.338.143-1.992a2.711,2.711,0,0,1,3.021-2.127,1.467,1.467,0,0,1,1.165,1.24,1.4,1.4,0,0,1-.784,1.436,2.138,2.138,0,0,1-.21.092c-.4.153-.4.153-.389.6a8.512,8.512,0,0,1-2.381,6.279,8.707,8.707,0,0,1-3.857,2.237c-.43.13-.449.127-.459.576-.02.9-.02,1.81-.021,2.716a.652.652,0,0,0,.358.55,1.42,1.42,0,0,1,.438,2.027,1.346,1.346,0,0,1-1.142.629c-.736.01-1.473.008-2.209,0a1.33,1.33,0,0,1-1.279-1.007,1.258,1.258,0,0,1,.473-1.545,1.082,1.082,0,0,0,.494-1c-.017-.836-.005-1.672-.006-2.508,0-.345,0-.346-.338-.433a8.234,8.234,0,0,1-6.343-8.54c.017-.365,0-.4-.312-.51a1.5,1.5,0,0,1-1.083-1.776,1.567,1.567,0,0,1,1.793-1.087,2.931,2.931,0,0,1,2.5,2.979,7.849,7.849,0,0,0,.2,2.4,5.023,5.023,0,0,0,3.17,3.426,3.574,3.574,0,0,0,.362.091" transform="translate(-193.796 -194.992)" fill="#69aa04"/>
    <path id="Caminho_79" data-name="Caminho 79" d="M128.344,181.7a4.163,4.163,0,0,1-2.949-1.244,1.428,1.428,0,0,1-.375-1.676,1.318,1.318,0,0,1,1.339-.854,2.642,2.642,0,0,1,.834.286,6.857,6.857,0,0,1,.64.4,1.207,1.207,0,0,0,1.308.011c.3-.171.577-.379.882-.538a1.372,1.372,0,0,1,1.818.42,1.413,1.413,0,0,1-.1,1.8,4.307,4.307,0,0,1-3.4,1.391" transform="translate(-100.932 -143.774)" fill="#69aa04"/>
    <path id="Caminho_80" data-name="Caminho 80" d="M110.024,137.111c.071-.428.1-.812.2-1.177a1.243,1.243,0,0,1,1.38-.929,1.369,1.369,0,0,1,1.334,1.2,4.767,4.767,0,0,1-.086,1.755,1.207,1.207,0,0,1-1.227,1.031,1.327,1.327,0,0,1-1.39-.844,7.009,7.009,0,0,1-.213-1.033" transform="translate(-88.916 -109.1)" fill="#69aa04"/>
    <path id="Caminho_81" data-name="Caminho 81" d="M164.416,135.036a1.251,1.251,0,0,1,1.379,1.049,3.828,3.828,0,0,1-.005,1.952,1.3,1.3,0,0,1-1.323.991,1.378,1.378,0,0,1-1.383-1.061,4.067,4.067,0,0,1,.083-1.977,1.214,1.214,0,0,1,1.248-.953" transform="translate(-131.73 -109.128)" fill="#69aa04"/>
  </g>
</svg>
