<svg xmlns="http://www.w3.org/2000/svg" width="72.983" height="72.977" viewBox="0 0 72.983 72.977">
  <g id="_6" data-name="6" transform="translate(-1.992 -2)">
    <circle id="Elipse_19" data-name="Elipse 19" cx="1.216" cy="1.216" r="1.216" transform="translate(27.373 46.234)" fill="#69aa04"/>
    <path id="Caminho_82" data-name="Caminho 82" d="M12.081,56.433a6.081,6.081,0,1,0,6.081,6.081,6.081,6.081,0,0,0-6.081-6.081Zm0,9.73a3.649,3.649,0,1,1,3.649-3.649A3.649,3.649,0,0,1,12.081,66.163ZM41.271,18.73a4.865,4.865,0,1,0-4.865-4.865A4.865,4.865,0,0,0,41.271,18.73Zm0-7.3a2.432,2.432,0,1,1-2.432,2.432A2.432,2.432,0,0,1,41.271,11.432ZM55.865,23.595A4.865,4.865,0,1,0,60.73,28.46,4.865,4.865,0,0,0,55.865,23.595Zm0,7.3A2.432,2.432,0,1,1,58.3,28.46,2.432,2.432,0,0,1,55.865,30.892ZM27.892,22.378a1.216,1.216,0,0,0-1.216,1.216v6.081a1.216,1.216,0,0,0,2.432,0V23.595A1.216,1.216,0,0,0,27.892,22.378Zm0-12.162a1.216,1.216,0,0,0-1.216,1.216v6.081a1.216,1.216,0,0,0,2.432,0V11.432A1.216,1.216,0,0,0,27.892,10.216Z" transform="translate(0.867 1.514)" fill="#69aa04"/>
    <path id="Caminho_83" data-name="Caminho 83" d="M71.327,2H5.65A3.649,3.649,0,0,0,2,5.649v7.3a1.216,1.216,0,0,0,1.216,1.216,7.93,7.93,0,0,1,7.1,4.5,12.689,12.689,0,0,0-2.257,9.643,7.856,7.856,0,0,1-4.839,1.667A1.216,1.216,0,0,0,2,31.189v6.081a4.865,4.865,0,0,0,4.865,4.865h9.411l3.846,5.495L16,53.522a10.946,10.946,0,1,0,7.488,13.425l5.083-7.256,5.79,8.27A10.946,10.946,0,1,0,44.57,53.081a10.817,10.817,0,0,0-3.37.531l-4.186-5.981,3.849-5.5H70.11a4.865,4.865,0,0,0,4.865-4.865V31.189a1.216,1.216,0,0,0-1.216-1.216,7.905,7.905,0,0,1,0-15.811,1.216,1.216,0,0,0,1.216-1.216v-7.3A3.649,3.649,0,0,0,71.327,2ZM6.867,39.7a2.432,2.432,0,0,1-2.432-2.432V32.334a10.289,10.289,0,0,0,4.319-1.559,12.616,12.616,0,0,0,1.389,2.6L14.574,39.7Zm14.506,26.02a1.228,1.228,0,0,0-.184.4A8.52,8.52,0,1,1,16.035,56.1a1.216,1.216,0,0,0,1.439-.435l4.135-5.913,5.473,7.814ZM39.746,55.78a1.216,1.216,0,0,0,1.476.42,8.422,8.422,0,0,1,3.347-.686A8.514,8.514,0,1,1,36.589,66.96a1.312,1.312,0,0,0-.146-.277l-24.309-34.7a10.216,10.216,0,0,1,1.543-13.448ZM35.529,45.512l-2.363-3.376h4.727ZM72.543,11.8a10.338,10.338,0,0,0,0,20.532v4.937A2.432,2.432,0,0,1,70.11,39.7H31.464L14.933,16.081a1.224,1.224,0,0,0-1.7-.3,12.815,12.815,0,0,0-1.192.961A10.415,10.415,0,0,0,4.434,11.8V5.649A1.216,1.216,0,0,1,5.65,4.432H27.542V6.865a1.216,1.216,0,1,0,2.432,0V4.432H71.327a1.216,1.216,0,0,1,1.216,1.216Z" transform="translate(0 0)" fill="#69aa04"/>
    <path id="Caminho_84" data-name="Caminho 84" d="M38.107,68.371a6.081,6.081,0,1,0-6.081-6.081A6.081,6.081,0,0,0,38.107,68.371Zm0-9.73a3.649,3.649,0,1,1-3.649,3.649,3.649,3.649,0,0,1,3.649-3.649ZM52.85,11.061a3.753,3.753,0,0,0-5.154,0l-14.69,14.5a3.781,3.781,0,1,0,5.348,5.348L52.849,16.222a3.68,3.68,0,0,0,0-5.16ZM51.12,14.506l-14.5,14.688a1.349,1.349,0,1,1-1.908-1.907L49.41,12.78a1.216,1.216,0,1,1,1.71,1.726Z" transform="translate(6.463 1.738)" fill="#69aa04"/>
  </g>
</svg>
