<svg xmlns="http://www.w3.org/2000/svg" width="88.833" height="101.05" viewBox="0 0 88.833 101.05">
  <g id="_7" data-name="7" transform="translate(-0.031)">
    <path id="Caminho_85" data-name="Caminho 85" d="M59.974,39.04h4.481l-1.318,2.011a1.4,1.4,0,0,0,1.171,2.168H95.131A1.4,1.4,0,0,0,96.3,41.051L94.984,39.04h5a1.4,1.4,0,0,0,1.155-2.192L90.8,21.74a1.4,1.4,0,0,0-1.156-.61h-.023a1.4,1.4,0,0,0-1.158.649l-2.358,3.71-4.983-7.608V12.413h10.04a1.4,1.4,0,0,0,1.044-2.333L88.753,6.206l3.453-3.874A1.4,1.4,0,0,0,91.16,0H79.722a1.4,1.4,0,0,0-1.4,1.4v16.48l-4.715,7.194-2.108-3.3a1.4,1.4,0,0,0-2.336-.038L58.818,36.847a1.4,1.4,0,0,0,1.156,2.193ZM81.121,2.8h6.916l-2.2,2.474a1.4,1.4,0,0,0,0,1.864l2.2,2.474H81.121ZM66.9,40.418,79.72,20.855,92.539,40.418ZM89.69,25.073l7.643,11.167H93.149L87.79,28.06Zm-19.412,0,1.645,2.575-5.631,8.6H62.63ZM89.793,57.684V53.929a9.628,9.628,0,0,0-9.616-9.616h-.391a9.627,9.627,0,0,0-9.615,9.616v3.755A9.627,9.627,0,0,0,79.786,67.3h.392a9.626,9.626,0,0,0,9.615-9.615ZM80.177,64.5h-.391a6.823,6.823,0,0,1-6.814-6.814V53.929a6.824,6.824,0,0,1,6.814-6.815h.392a6.823,6.823,0,0,1,6.814,6.815v3.755A6.822,6.822,0,0,1,80.177,64.5Zm30.267-6.3-5.5-.02h0a1.4,1.4,0,0,0-1.308,1.9l1.321,3.447a1.4,1.4,0,0,0,1.308.9h2.863a1.4,1.4,0,0,0,1.307-.894l1.32-3.427a1.4,1.4,0,0,0-1.3-1.9Zm-2.287,3.427h-.938l-.245-.638,1.427,0ZM99.5,49.256a7.86,7.86,0,0,0,7.852,7.851h.307a7.86,7.86,0,0,0,7.851-7.851V46.307a7.861,7.861,0,0,0-7.851-7.851h-.307A7.861,7.861,0,0,0,99.5,46.307Zm2.8-2.949a5.057,5.057,0,0,1,5.051-5.05h.307a5.056,5.056,0,0,1,5.05,5.05v2.949a5.055,5.055,0,0,1-5.051,5.05h-.306a5.056,5.056,0,0,1-5.05-5.05ZM55.4,58.2l-5.5-.02h0a1.4,1.4,0,0,0-1.3,1.92l1.321,3.3a1.4,1.4,0,0,0,1.3.88h2.862a1.4,1.4,0,0,0,1.3-.877l1.32-3.279A1.4,1.4,0,0,0,55.4,58.2Zm-2.271,3.279h-.969l-.2-.49,1.361,0Zm-.822-4.37h.306a7.86,7.86,0,0,0,7.852-7.851V46.307a7.862,7.862,0,0,0-7.852-7.851H52.3a7.86,7.86,0,0,0-7.851,7.851v2.949a7.86,7.86,0,0,0,7.852,7.851Zm-5.05-10.8a5.056,5.056,0,0,1,5.05-5.05h.306a5.056,5.056,0,0,1,5.05,5.05v2.949a5.056,5.056,0,0,1-5.05,5.05H52.3a5.056,5.056,0,0,1-5.05-5.05Zm0,0" transform="translate(-35.534 0)" fill="#69aa04"/>
    <path id="Caminho_86" data-name="Caminho 86" d="M80.537,288.384H78.35a1.4,1.4,0,0,0-1.316.92l-2.812,7.708-.032-.4a1.4,1.4,0,0,0-1.4-1.289H71.669a1.4,1.4,0,0,0-1.4,1.289l-.069.86-3.314-8.213a1.4,1.4,0,0,0-1.3-.876H63.4a8.336,8.336,0,0,0-8.327,8.327V299.5H52.416a1.4,1.4,0,0,0-1.361,1.068L48.049,312.85l-.189-4.086a1.4,1.4,0,0,0-1.389-1.337l-3.364-.025H43.1a1.4,1.4,0,0,0-1.4,1.323l-.272,4.925-3.595-13.117a1.4,1.4,0,0,0-1.351-1.03h-2.66V296.71a8.336,8.336,0,0,0-8.327-8.327H23.3a1.4,1.4,0,0,0-1.315.92l-2.812,7.708-.032-.4a1.4,1.4,0,0,0-1.4-1.288H16.622a1.4,1.4,0,0,0-1.4,1.288l-.069.86-3.314-8.213a1.4,1.4,0,0,0-1.3-.876H8.358A8.336,8.336,0,0,0,.031,296.71v16.769a1.4,1.4,0,0,0,1.4,1.4h12.33l-.119,1.481a1.4,1.4,0,0,0,.626,1.282l2.174,1.431A1.4,1.4,0,0,0,18,319.065l2.121-1.432a1.4,1.4,0,0,0,.613-1.272l-.119-1.479h2.706v12.2a1.4,1.4,0,0,0,1.4,1.4H40.6a1.4,1.4,0,0,0,.632,1.2l2.786,1.822a1.4,1.4,0,0,0,1.547-.009l2.719-1.823a1.4,1.4,0,0,0,.618-1.195H64.178a1.4,1.4,0,0,0,1.4-1.4v-12.2h3.229l-.119,1.48a1.4,1.4,0,0,0,.626,1.282l2.173,1.431a1.4,1.4,0,0,0,1.554-.009l2.121-1.432a1.4,1.4,0,0,0,.613-1.272l-.119-1.479H87.464a1.4,1.4,0,0,0,1.4-1.4V296.71a8.336,8.336,0,0,0-8.327-8.327Zm-77.7,23.695V296.71a5.531,5.531,0,0,1,5.525-5.525H9.6l5.057,12.532-.671,8.362ZM17.2,316.22l-.7-.462.685-8.534.685,8.545Zm3.183-4.142-.671-8.367,4.57-12.527h1.207a5.531,5.531,0,0,1,5.525,5.526v3.108a10.238,10.238,0,0,0-7.7,9.906v2.355H20.385Zm5.733-2.354a7.428,7.428,0,0,1,7.42-7.42h1.873l5.525,20.154-.18,3.219H26.117V309.725Zm18.661,18.927-1.334-.872.3-5.429.06-.016-.048-.177.664-11.944.7,0,.6,12.906c0,.012,0,.023,0,.034l.33,4.639Zm18-2.975H48.709l-.191-2.7-.01-.219L53.514,302.3h1.842a7.428,7.428,0,0,1,7.42,7.42v15.952Zm2.8-13.6v-2.354a10.239,10.239,0,0,0-7.7-9.905V296.71a5.532,5.532,0,0,1,5.526-5.526h1.242L69.7,303.717l-.671,8.363H65.578Zm6.671,4.142-.7-.462.684-8.534.685,8.545Zm13.814-4.141H75.431l-.671-8.367,4.57-12.527h1.207a5.532,5.532,0,0,1,5.526,5.526Zm0,0" transform="translate(0 -230.684)" fill="#69aa04"/>
    <path id="Caminho_87" data-name="Caminho 87" d="M207.586,347.033l-7.01-.025h0a1.4,1.4,0,0,0-1.253,2.027l1.823,3.645a1.4,1.4,0,0,0,1.242.774l3.364.025h.01a1.4,1.4,0,0,0,1.253-.774l1.823-3.645a1.4,1.4,0,0,0-1.247-2.027Zm-2.689,3.64-1.634-.012-.42-.843,2.477.009Zm0,0" transform="translate(-159.297 -277.58)" fill="#69aa04"/>
  </g>
</svg>
