<svg xmlns="http://www.w3.org/2000/svg" width="127" height="127" viewBox="0 0 127 127">
  <g id="CAMERA" transform="translate(0 -0.413)">
    <rect id="Retângulo_108" data-name="Retângulo 108" width="127" height="127" rx="18" transform="translate(0 0.413)" fill="#fff"/>
    <g id="f6efbe4a14452e9ee6db5900ef946392" transform="translate(30.996 31.614)">
      <path id="Caminho_34" data-name="Caminho 34" d="M725.183,13.714c-17.986-.028-32.193,6-32.193,32.2,0,26.168,14.2,32.2,32.2,32.2s32.2-6.036,32.2-32.2c0-26.2-14.207-32.231-32.194-32.2h-.01Z" transform="translate(-692.99 -13.714)" fill="#06f"/>
      <path id="Caminho_35" data-name="Caminho 35" d="M700.7,21.647H726.13a3.112,3.112,0,0,1,3.118,3.118V40.358a3.112,3.112,0,0,1-3.118,3.118H700.7a3.112,3.112,0,0,1-3.119-3.118V24.766a3.112,3.112,0,0,1,3.119-3.118Z" transform="translate(-685.255 -0.358)" fill="#fdfbe5"/>
      <path id="Caminho_36" data-name="Caminho 36" d="M716.638,22.181c-.735-.059-4.877,4.325-7.08,7.213v4.589c2.306,3,6.738,7.62,7.178,7.131.6-.664.579-18.24-.021-18.9a.119.119,0,0,0-.077-.035Z" transform="translate(-665.097 0.539)" fill="#f8d307"/>
    </g>
  </g>
</svg>
