<svg xmlns="http://www.w3.org/2000/svg" width="79.991" height="79.991" viewBox="0 0 79.991 79.991">
  <g id="G_01" transform="translate(-196.004 -2641.005)">
    <path id="_3004aec46d94ecb22143db4499c84a40" data-name="3004aec46d94ecb22143db4499c84a40" d="M40.259.266a40,40,0,1,0,40,40,40.036,40.036,0,0,0-40-40Zm0,5.311A34.673,34.673,0,1,1,5.6,40.261,34.657,34.657,0,0,1,40.259,5.577Zm.011,5.343a29.28,29.28,0,0,0-16.158,4.869,2.667,2.667,0,0,0,2.946,4.448,24.073,24.073,0,1,1-6.8,6.8,2.668,2.668,0,1,0-4.448-2.949A29.317,29.317,0,1,0,40.27,10.92Zm-.048,10.617a2.666,2.666,0,0,0-2.618,2.72v16a2.666,2.666,0,0,0,.787,1.869L49.061,52.8a2.666,2.666,0,1,0,3.76-3.76l-9.884-9.9V24.258a2.666,2.666,0,0,0-2.714-2.72Z" transform="translate(195.741 2640.739)" fill="#69aa04" fill-rule="evenodd"/>
  </g>
</svg>
