<svg xmlns="http://www.w3.org/2000/svg" width="63.424" height="63.427" viewBox="0 0 63.424 63.427">
  <path id="G_02" d="M55.913,21.028a9.492,9.492,0,0,0-3.171,18.445v5.341a14.271,14.271,0,1,1-28.542,0V42.942A19.041,19.041,0,0,0,40.056,24.2V5.171A3.171,3.171,0,0,0,36.885,2H30.542a3.171,3.171,0,0,0,0,6.343h3.171V24.2a12.685,12.685,0,0,1-25.371,0V8.343h3.171a3.171,3.171,0,0,0,0-6.343H5.171A3.171,3.171,0,0,0,2,5.171V24.2A19.041,19.041,0,0,0,17.857,42.942v1.871a20.614,20.614,0,1,0,41.228,0V39.473a9.492,9.492,0,0,0-3.171-18.445Zm0,12.685a3.171,3.171,0,1,1,3.171-3.171A3.171,3.171,0,0,1,55.913,33.714Z" transform="translate(-2 -2)" fill="#69aa04"/>
</svg>
