<svg xmlns="http://www.w3.org/2000/svg" width="79.991" height="79.991" viewBox="0 0 79.991 79.991">
  <g id="G_03" transform="translate(-148.487 -2617.491)">
    <g id="_462d2a33161337f9fb07a6425a0e4c00" data-name="462d2a33161337f9fb07a6425a0e4c00" transform="translate(148.487 2617.491)">
      <path id="Caminho_63" data-name="Caminho 63" d="M18.666,160H16v31.663a3,3,0,0,0,3,3H42.664v2.431A3.655,3.655,0,0,1,39.6,200.71l-1.037.173a4.652,4.652,0,0,0-3.9,4.6v1.176A1.333,1.333,0,0,0,36,207.995H52v-2.666H37.337A1.993,1.993,0,0,1,39,203.513l1.037-.173a6.313,6.313,0,0,0,5.292-6.246v-2.431H52V192H19a.333.333,0,0,1-.333-.333v-5H52V184H18.666Z" transform="translate(-16 -136.003)" fill="#69aa04"/>
      <path id="Caminho_64" data-name="Caminho 64" d="M25.332,26.665H81.326V41.331h2.666v-24A1.333,1.333,0,0,0,82.659,16H24a1.333,1.333,0,0,0-1.333,1.333v12H19a3,3,0,0,0-3,3v5h2.666v-5A.333.333,0,0,1,19,32h3.666V60A1.333,1.333,0,0,0,24,61.328H52V58.662H25.332Zm55.994-8V24H25.332V18.666Z" transform="translate(-16 -16)" fill="#69aa04"/>
      <rect id="Retângulo_148" data-name="Retângulo 148" width="3" height="3" transform="translate(12 3.996)" fill="#69aa04"/>
      <rect id="Retângulo_149" data-name="Retângulo 149" width="3" height="3" transform="translate(17 3.996)" fill="#69aa04"/>
      <rect id="Retângulo_150" data-name="Retângulo 150" width="2" height="3" transform="translate(23 3.996)" fill="#69aa04"/>
      <rect id="Retângulo_151" data-name="Retângulo 151" width="3" height="3" transform="translate(60 3.996)" fill="#69aa04"/>
      <path id="Caminho_65" data-name="Caminho 65" d="M138.661,101.333v-4A1.333,1.333,0,0,0,137.328,96h-4v2.666h2.666v2.666ZM88,117.331v4a1.333,1.333,0,0,0,1.333,1.333h4V120H90.666v-2.666Zm29.33-3.666a.333.333,0,0,1,.333-.333h31.33a.333.333,0,0,1,.333.333v9h2.666v-9a3,3,0,0,0-3-3h-31.33a3,3,0,0,0-3,3v42a3,3,0,0,0,3,3H132v-2.666H117.663a.333.333,0,0,1-.333-.333v-3.666H132v-2.666H117.33Z" transform="translate(-76.001 -82.668)" fill="#69aa04"/>
      <path id="Caminho_66" data-name="Caminho 66" d="M280,242.664v2.666a1.333,1.333,0,0,0,1.333,1.333H284V244h-1.333v-1.333ZM306.664,220v-2.666A1.333,1.333,0,0,0,305.331,216h-2.666v2.666H304V220ZM316,249.33v-21a3,3,0,0,0-3-3H297.665a3,3,0,0,0-3,3v31.33a3,3,0,0,0,3,3H313a3,3,0,0,0,3-3V252H313.33v7.666A.333.333,0,0,1,313,260H297.665a.333.333,0,0,1-.333-.333v-31.33a.333.333,0,0,1,.333-.333H313a.333.333,0,0,1,.333.333v21Z" transform="translate(-236.005 -182.67)" fill="#69aa04"/>
      <rect id="Retângulo_152" data-name="Retângulo 152" width="3" height="3" transform="translate(68 72.996)" fill="#69aa04"/>
      <rect id="Retângulo_153" data-name="Retângulo 153" width="2.667" height="11.312" transform="translate(64.384 58.27) rotate(-45)" fill="#69aa04"/>
      <rect id="Retângulo_154" data-name="Retângulo 154" width="2.667" height="5.656" transform="translate(69.716 56.937) rotate(-45)" fill="#69aa04"/>
    </g>
  </g>
</svg>
