<svg xmlns="http://www.w3.org/2000/svg" xmlns:xlink="http://www.w3.org/1999/xlink" width="79" height="74" viewBox="0 0 79 74">
  <defs>
    <clipPath id="clip-path">
      <rect id="Retângulo_112" data-name="Retângulo 112" width="79" height="74" rx="14" transform="translate(140.538 2404.457)" fill="#69aa04"/>
    </clipPath>
  </defs>
  <g id="G_03" transform="translate(-140.538 -2404.457)" clip-path="url(#clip-path)">
    <path id="_49_Check_Files" data-name="49 Check Files" d="M125.907,56.393,108.77,38.851a5.5,5.5,0,0,0-3.927-1.651h-26.9a5.5,5.5,0,0,0-5.5,5.5v1.835H70.6a5.5,5.5,0,0,0-5.5,5.5v9.174a1.835,1.835,0,1,0,3.67,0V50.044A1.835,1.835,0,0,1,70.6,48.209h1.835V97.75a5.5,5.5,0,0,0,5.5,5.5h38.532v1.835a1.835,1.835,0,0,1-1.835,1.835H70.6a1.835,1.835,0,0,1-1.835-1.835V66.558a1.835,1.835,0,0,0-3.67,0V105.09a5.5,5.5,0,0,0,5.5,5.5h44.037a5.5,5.5,0,0,0,5.5-5.5v-1.835h1.835a5.5,5.5,0,0,0,5.5-5.5V60.228A5.376,5.376,0,0,0,125.907,56.393ZM109.137,44.539l12.624,12.844H110.972a1.835,1.835,0,0,1-1.835-1.835ZM123.816,97.75a1.835,1.835,0,0,1-1.835,1.835H77.944a1.835,1.835,0,0,1-1.835-1.835V42.7a1.835,1.835,0,0,1,1.835-1.835h26.9a1.835,1.835,0,0,1,.624.128v14.55a5.5,5.5,0,0,0,5.5,5.5h12.844ZM112.128,66.961a1.835,1.835,0,0,1,.275,2.587L97.724,87.9a1.83,1.83,0,0,1-2.569.275l-9.174-7.339a1.834,1.834,0,1,1,2.294-2.862L96,84.154l13.541-16.9a1.835,1.835,0,0,1,2.587-.294Z" transform="translate(83.745 2367.56)" fill="#69aa04"/>
  </g>
</svg>
