<svg xmlns="http://www.w3.org/2000/svg" xmlns:xlink="http://www.w3.org/1999/xlink" width="89" height="82" viewBox="0 0 89 82">
  <defs>
    <clipPath id="clip-path">
      <rect id="Retângulo_112" data-name="Retângulo 112" width="89" height="82" rx="14" transform="translate(140.621 2405.342)" fill="#69aa04"/>
    </clipPath>
  </defs>
  <g id="G_05" transform="translate(-140.621 -2405.342)" clip-path="url(#clip-path)">
    <g id="_2097e7d2754578329609a055236b90a8" data-name="2097e7d2754578329609a055236b90a8" transform="translate(143.77 2405)">
      <path id="Caminho_67" data-name="Caminho 67" d="M97.146,23.309a2.518,2.518,0,0,0-2.3-2.376L62.329,17.717a2.5,2.5,0,0,0-2.026.724L21.976,56.771c-5.749,5.749-5.749,9.255,0,15L46.3,96.1c2.577,2.578,4.838,4.291,7.5,4.291s4.925-1.718,7.5-4.293L99.63,57.765a2.512,2.512,0,0,0,.724-2.026ZM57.741,92.54c-1.209,1.209-2.933,2.817-3.942,2.817s-2.735-1.609-3.945-2.817L25.533,68.216c-3.759-3.758-3.759-4.129,0-7.887L63.022,22.84l29.308,2.9,2.9,29.309Z" transform="translate(-17.664 -17.704)" fill="#69aa04"/>
      <path id="Caminho_68" data-name="Caminho 68" d="M87.193,154.294,75.761,165.725c-2.886,2.886-3.679,4.843-.374,8.149a1.258,1.258,0,1,0,1.778-1.778c-1.971-1.971-1.947-2.27.374-4.592l11.432-11.431a1.258,1.258,0,0,0-1.778-1.778Z" transform="translate(-60.881 -123.648)" fill="#69aa04"/>
      <path id="Caminho_69" data-name="Caminho 69" d="M147.281,138.18l-1.022,1.024a1.258,1.258,0,0,0,1.781,1.776l1.023-1.024a1.258,1.258,0,0,0-1.781-1.776Z" transform="translate(-117.39 -111.115)" fill="#69aa04"/>
      <path id="Caminho_70" data-name="Caminho 70" d="M249.842,72.778A10.429,10.429,0,1,0,260.27,83.207,10.443,10.443,0,0,0,249.842,72.778Zm0,15.827a5.4,5.4,0,1,1,5.4-5.4,5.406,5.406,0,0,1-5.4,5.4Z" transform="translate(-190.124 -60.537)" fill="#69aa04"/>
    </g>
  </g>
</svg>
