<svg xmlns="http://www.w3.org/2000/svg" xmlns:xlink="http://www.w3.org/1999/xlink" width="89" height="82" viewBox="0 0 89 82">
  <defs>
    <clipPath id="clip-path">
      <rect id="Retângulo_112" data-name="Retângulo 112" width="89" height="82" rx="14" transform="translate(140.33 2405.027)" fill="#69aa04"/>
    </clipPath>
  </defs>
  <g id="G_06" transform="translate(-140.33 -2405.027)" clip-path="url(#clip-path)">
    <path id="_1b27143c0b23c0a93b606d1bd161f18d" data-name="1b27143c0b23c0a93b606d1bd161f18d" d="M37.933,45.865a1.2,1.2,0,0,0,0,2.4h8.7a1.2,1.2,0,1,0,0-2.4ZM56.238,33.058H37.933a1.2,1.2,0,0,0,0,2.4H56.238a1.2,1.2,0,1,0,0-2.4ZM21.6,20.651H54.957a2.484,2.484,0,0,0,2.481-2.481V9.685A2.484,2.484,0,0,0,54.957,7.2H21.6a2.484,2.484,0,0,0-2.481,2.481V18.17A2.484,2.484,0,0,0,21.6,20.651Zm-.08-10.966a.08.08,0,0,1,.08-.08H54.957a.08.08,0,0,1,.08.08V18.17a.08.08,0,0,1-.08.08H21.6a.08.08,0,0,1-.08-.08Zm34.714,18.57H37.933a1.2,1.2,0,0,0,0,2.4H56.238a1.2,1.2,0,1,0,0-2.4ZM87.857,65.6l-3.2-4.275a3.915,3.915,0,0,0-3.712-1.523,7.34,7.34,0,0,1-1.83-5.2l.728-14.627a13.333,13.333,0,0,0-5.784-11.608l-9.422-6.418V6.59A6.609,6.609,0,0,0,58.031,0H18.53a6.608,6.608,0,0,0-6.612,6.59V68.165a6.609,6.609,0,0,0,6.612,6.59H52.439a1.2,1.2,0,0,0,.125-.007l.029,0c.031,0,.063-.008.093-.015l.045-.012c.025-.006.05-.012.075-.02l.045-.017c.024-.009.048-.017.071-.027l.039-.02c.024-.012.048-.023.071-.036l.036-.023c.023-.014.047-.028.069-.044s.026-.021.039-.031.04-.03.058-.047a1.2,1.2,0,0,0,.09-.088l7.612-8.295A11.273,11.273,0,0,0,62.611,69.4l1.836,2.5a3.891,3.891,0,0,0,.281,4.225l3.2,4.275a3.918,3.918,0,0,0,5.463.8l13.67-10.138a3.889,3.889,0,0,0,.8-5.454ZM53.64,70.471v-7.7h6.788q0,.151,0,.3Zm6.854-10.688-.014.581H53.522a2.283,2.283,0,0,0-2.283,2.278v9.712H18.53a4.2,4.2,0,0,1-4.21-4.189V6.59A4.2,4.2,0,0,1,18.53,2.4h39.5a4.2,4.2,0,0,1,4.21,4.189v36.4l-2.42-2.41a6.38,6.38,0,0,0-8.908-.129,3.509,3.509,0,0,0-.364,4.741l8.873,11.351A5.069,5.069,0,0,1,60.494,59.783Zm4.052,8.194a8.894,8.894,0,0,1-1.716-5.454l.065-2.681a7.475,7.475,0,0,0-1.581-4.774L52.441,43.717a1.119,1.119,0,0,1,.117-1.512,3.988,3.988,0,0,1,5.569.08l7.157,7.129a1.2,1.2,0,0,0,1.695-1.7l-2.336-2.327V24.859l8.07,5.5a10.917,10.917,0,0,1,4.737,9.5l-.728,14.628a9.76,9.76,0,0,0,2,6.394L66.172,70.191Zm21.668.17a1.483,1.483,0,0,1-.589.982L71.955,79.266a1.513,1.513,0,0,1-2.109-.307l-3.2-4.275a1.483,1.483,0,0,1,.023-1.81,1.2,1.2,0,0,0,.242-.242c.015-.012.028-.024.043-.036l13.67-10.138a1.513,1.513,0,0,1,2.109.307l3.2,4.275a1.477,1.477,0,0,1,.281,1.105ZM49.034,50.668h-11.1a1.2,1.2,0,1,0,0,2.4h11.1a1.2,1.2,0,0,0,0-2.4Zm-3.8,9.7H20.323a1.2,1.2,0,0,0,0,2.4H45.235a1.2,1.2,0,1,0,0-2.4Zm-20.129-17.4L20.372,47.7a4.267,4.267,0,0,0,6.034,6.034L31.141,49a4.267,4.267,0,0,0-6.034-6.034Zm-.4,9.071a1.865,1.865,0,1,1-2.638-2.638l1.518-1.518,2.638,2.638ZM29.443,47.3l-1.518,1.518-2.638-2.638L26.8,44.66A1.865,1.865,0,0,1,29.443,47.3Zm1.7-21.946a4.272,4.272,0,0,0-6.034,0l-4.735,4.735a4.267,4.267,0,0,0,6.034,6.034l4.735-4.735A4.271,4.271,0,0,0,31.141,25.352Zm-6.433,9.071a1.865,1.865,0,1,1-2.638-2.638l1.518-1.518L26.227,32.9Zm4.735-4.735-1.518,1.518-2.638-2.638L26.8,27.05a1.865,1.865,0,0,1,2.638,2.638Zm8.589,35.479H20.323a1.2,1.2,0,0,0,0,2.4H38.031a1.2,1.2,0,1,0,0-2.4Z" transform="translate(134.556 2405.045)" fill="#69aa04"/>
  </g>
</svg>
