<svg xmlns="http://www.w3.org/2000/svg" width="127" height="125" viewBox="0 0 127 125">
  <g id="HOSPITAl" transform="translate(0 -0.12)">
    <rect id="Ret창ngulo_106" data-name="Ret창ngulo 106" width="127" height="125" rx="18" transform="translate(0 0.12)" fill="#fff"/>
    <g id="_962be060912c757fcbe991a8e4c62425" data-name="962be060912c757fcbe991a8e4c62425" transform="translate(27.503 29.381)">
      <rect id="Ret창ngulo_107" data-name="Ret창ngulo 107" width="28.783" height="63.812" transform="translate(21.255 1.439)" fill="#ec7bb0"/>
      <path id="Caminho_29" data-name="Caminho 29" d="M876.762,1542.686h22.027v60.444H876.762Zm46.468,0h22.027v60.444H923.23Z" transform="translate(-875.32 -1537.879)" fill="#92d9f7"/>
      <path id="Caminho_30" data-name="Caminho 30" d="M900.261,1580.278V1554.84H888.748v25.438" transform="translate(-858.83 -1515.05)" fill="#cdcccd" fill-rule="evenodd"/>
      <path id="Caminho_31" data-name="Caminho 31" d="M893.5,1542.686v5.757h-5.757v5.757H893.5v5.757h5.757V1554.2h5.757v-5.757h-5.757v-5.757Z" transform="translate(-860.708 -1529.743)" fill="#f2f2f2"/>
      <path id="Caminho_32" data-name="Caminho 32" d="M896.693,1551.185a1.439,1.439,0,0,0,0,2.878h25.9a1.439,1.439,0,0,0,0-2.878Z" transform="translate(-852.643 -1516.827)" fill="#62355c" fill-rule="evenodd"/>
      <path id="Caminho_33" data-name="Caminho 33" d="M899.587,1537.186a1.233,1.233,0,0,0-1.231,1.235v11.115H877.492a1.233,1.233,0,0,0-1.231,1.235v51.868a1.233,1.233,0,0,0,1.231,1.235h68.914a1.233,1.233,0,0,0,1.231-1.235v-51.866a1.233,1.233,0,0,0-1.231-1.235H925.442v-11.115a1.233,1.233,0,0,0-1.231-1.235H899.587Zm1.231,2.47H922.98v61.75h-4.89v-19.76h1.148a1.235,1.235,0,1,0,0-2.47H904.561a1.235,1.235,0,1,0,0,2.47h1.216v19.76h-4.893v-50.635a1.24,1.24,0,0,0-.066-.405Zm8.653,9.88a1.233,1.233,0,0,0-1.231,1.235v3.7h-3.694a1.233,1.233,0,0,0-1.231,1.235v4.94a1.233,1.233,0,0,0,1.231,1.235h3.694v3.705a1.233,1.233,0,0,0,1.231,1.235H914.4a1.233,1.233,0,0,0,1.231-1.235v-3.705h3.694a1.233,1.233,0,0,0,1.231-1.235v-4.94a1.233,1.233,0,0,0-1.231-1.235h-3.694v-3.7a1.233,1.233,0,0,0-1.231-1.235Zm-30.748,2.47h4.893v4.94h-4.893Zm7.355,0H891v4.94h-4.925Zm7.387,0h4.89v4.94h-4.89Zm17.237,0h2.462v3.705a1.233,1.233,0,0,0,1.231,1.235h3.694v2.47H914.4a1.233,1.233,0,0,0-1.231,1.235v3.705H910.7v-3.705a1.233,1.233,0,0,0-1.231-1.235h-3.694v-2.47h3.694a1.233,1.233,0,0,0,1.231-1.235Zm14.774,0H930.4v4.94h-4.925Zm7.387,0h4.925v4.94h-4.925Zm7.387,0h4.925v4.94h-4.925Zm-61.527,7.41h4.893v4.94h-4.893Zm7.355,0H891v4.94h-4.925Zm7.387,0h4.89v4.94h-4.89Zm32.011,0H930.4v4.94h-4.925Zm7.387,0h4.925v4.94h-4.925Zm7.387,0h4.925v4.94h-4.925Zm-61.527,7.41h4.893v4.94h-4.893Zm7.355,0H891v4.94h-4.925Zm7.387,0h4.89v4.94h-4.89Zm32.011,0H930.4v12.35h-4.925Zm7.387,0h4.925v12.35h-4.925Zm7.387,0h4.925v12.35h-4.925Zm-61.527,7.41h4.893v4.94h-4.893Zm7.355,0H891v4.94h-4.925Zm7.387,0h4.89v4.94h-4.89Zm-14.742,7.41h4.893v4.94h-4.893Zm7.355,0H891v4.94h-4.925Zm7.387,0h4.89v4.94h-4.89Zm14.774,0h7.387v19.76H908.24Zm17.237,0H930.4v4.94h-4.925Zm7.387,0h4.925v4.94h-4.925Zm7.387,0h4.925v4.94h-4.925Zm-61.527,7.41h4.893V1594h-4.893Zm7.355,0H891V1594h-4.925Zm7.387,0h4.89V1594h-4.89Zm32.011,0H930.4V1594h-4.925Zm7.387,0h4.925V1594h-4.925Zm7.387,0h4.925V1594h-4.925Zm-61.527,7.41h4.893v4.94h-4.893Zm7.355,0H891v4.94h-4.925Zm7.387,0h4.89v4.94h-4.89Zm32.011,0H930.4v4.94h-4.925Zm7.387,0h4.925v4.94h-4.925Zm7.387,0h4.925v4.94h-4.925Z" transform="translate(-876.261 -1537.186)" fill="#62355c"/>
    </g>
  </g>
</svg>
