<svg xmlns="http://www.w3.org/2000/svg" width="167.24" height="78.055" viewBox="0 0 167.24 78.055">
  <g id="LOGO" transform="translate(-583 -364.044)">
    <g id="Grupo_11" data-name="Grupo 11" transform="translate(583 364.044)">
      <path id="Caminho_2" data-name="Caminho 2" d="M600.8,381.564c9.4,0,20.83,4.585,20.83,17.1,0,12.67-11.348,17.255-20.83,17.255h-5.208v20.053H583V381.564ZM595.591,405.5h3.42c5.363,0,9.25-1.71,9.25-6.607,0-4.275-3.109-6.918-7.772-6.918h-4.9Z" transform="translate(-583 -377.678)" fill="#2a65c5"/>
      <path id="Caminho_3" data-name="Caminho 3" d="M798.083,477.42l-1.166-3.264c-2.487,3.186-6.84,4.2-10.959,4.2-7.772,0-15.079-4.974-15.079-13.446,0-10.1,9.561-13.291,18.032-13.291a32.143,32.143,0,0,1,7.151.855v-.311c0-4.819-1.866-7.85-7.617-7.85-4.664,0-8.627,1.71-12.358,3.575l-3.264-8.628a42.033,42.033,0,0,1,18.421-4.43c11.425,0,17.41,6.762,17.41,17.643v24.95Zm-2.021-17.877a23.2,23.2,0,0,0-4.974-.7c-3.809,0-7.928,1.633-7.928,6.063,0,3.109,2.72,5.052,5.674,5.052a10.044,10.044,0,0,0,7.228-3.031Z" transform="translate(-729.207 -419.127)" fill="#2a65c5"/>
      <path id="Caminho_4" data-name="Caminho 4" d="M1003.025,472.834c-4.43,4.041-9.4,5.518-15.7,5.518-12.436,0-21.064-8.938-21.064-21.763,0-12.125,8.472-21.762,21.374-21.762a23.278,23.278,0,0,1,15.622,5.674l-6.529,8.472c-2.332-2.254-4.664-3.575-7.928-3.575-5.907,0-9.793,5.13-9.793,11.192,0,6.218,4.042,11.192,9.482,11.192a9.365,9.365,0,0,0,7.695-3.264Z" transform="translate(-881.253 -419.127)" fill="#2a65c5"/>
      <path id="Caminho_5" data-name="Caminho 5" d="M1177.37,422.337l-8.783-14.3-3.109,3.653v10.648h-12.592V364.044h12.592v32.177h.078l12.28-15.544H1191.9l-15,17.565,15.856,24.095Z" transform="translate(-1026.484 -364.044)" fill="#2a65c5"/>
      <g id="Grupo_10" data-name="Grupo 10" transform="translate(126.534 0.037)">
        <rect id="Ret창ngulo_49" data-name="Ret창ngulo 49" width="12.622" height="16.428" fill="#69aa04"/>
        <path id="Caminho_6" data-name="Caminho 6" d="M1177.552,456.976l15.035-17.608h-14.1l-12.311,15.582h-.076V439.444h-12.622v41.682H1166.1V470.453l3.116-3.66,8.8,14.333h15.423Z" transform="translate(-1153.478 -422.698)" fill="#2a65c5"/>
      </g>
    </g>
    <g id="Grupo_12" data-name="Grupo 12" transform="translate(670.995 427.746)">
      <path id="Caminho_7" data-name="Caminho 7" d="M979.724,658.79h3.045a6.276,6.276,0,0,1,3.33.784,3.029,3.029,0,0,1,1.353,2.618,2.578,2.578,0,0,1-1.816,2.546,2.949,2.949,0,0,1,2.333,2.938,3.264,3.264,0,0,1-2.084,3.081,8.914,8.914,0,0,1-3.277.5h-2.885Zm1.905,5.253h1.1c1.763,0,2.814-.552,2.814-1.763a1.527,1.527,0,0,0-.659-1.407,4.656,4.656,0,0,0-2.475-.427h-.784Zm0,5.556h.855a6.265,6.265,0,0,0,2.511-.338,1.625,1.625,0,0,0,.944-1.567c0-1.193-.855-1.994-2.458-1.994H981.63Z" transform="translate(-979.724 -657.116)" fill="#2a65c5"/>
      <path id="Caminho_8" data-name="Caminho 8" d="M1028.561,681.292a2.755,2.755,0,0,0,2.618-1.425l1.282.837a4.28,4.28,0,0,1-3.989,2.137,4.356,4.356,0,0,1-4.488-4.7,4.541,4.541,0,0,1,4.488-4.737,4.061,4.061,0,0,1,4.185,4.185,5.8,5.8,0,0,1-.089,1h-6.732A2.744,2.744,0,0,0,1028.561,681.292Zm-.054-6.358a2.649,2.649,0,0,0-2.564,2.244h4.808A2.281,2.281,0,0,0,1028.507,674.934Z" transform="translate(-1014.167 -668.488)" fill="#2a65c5"/>
      <path id="Caminho_9" data-name="Caminho 9" d="M1072.813,673.617l.053,1.425a3.46,3.46,0,0,1,2.92-1.638,3.013,3.013,0,0,1,2.565,1.14,5.752,5.752,0,0,1,.8,3.4v4.684h-1.834V678.1a4.6,4.6,0,0,0-.427-2.351,1.617,1.617,0,0,0-1.478-.694,3.148,3.148,0,0,0-2.511,1.6v5.966h-1.834v-9.011Z" transform="translate(-1050.807 -668.488)" fill="#2a65c5"/>
      <path id="Caminho_10" data-name="Caminho 10" d="M1119.6,681.292a2.756,2.756,0,0,0,2.618-1.425l1.282.837a4.281,4.281,0,0,1-3.989,2.137,4.356,4.356,0,0,1-4.487-4.7,4.54,4.54,0,0,1,4.487-4.737,4.061,4.061,0,0,1,4.185,4.185,5.786,5.786,0,0,1-.089,1h-6.732A2.744,2.744,0,0,0,1119.6,681.292Zm-.053-6.358a2.649,2.649,0,0,0-2.565,2.244h4.808A2.281,2.281,0,0,0,1119.545,674.934Z" transform="translate(-1085.012 -668.488)" fill="#2a65c5"/>
      <path id="Caminho_11" data-name="Caminho 11" d="M1164.587,655.735a2.489,2.489,0,0,0-1.175-.267,1.408,1.408,0,0,0-.961.285,2.136,2.136,0,0,0-.41,1.621v1h2.4v1.585h-2.4v7.426h-1.834v-7.426h-1.015v-1.585h1.015v-1.158a4.136,4.136,0,0,1,.588-2.368,2.717,2.717,0,0,1,2.44-1.033,4.8,4.8,0,0,1,1.888.427Zm1.407,11.647v-9.011h1.834v9.011Z" transform="translate(-1119.385 -653.242)" fill="#2a65c5"/>
      <path id="Caminho_12" data-name="Caminho 12" d="M1213.723,681.9a4.442,4.442,0,0,1-2.867.944,4.5,4.5,0,0,1-4.613-4.719,4.641,4.641,0,0,1,4.684-4.719,4.536,4.536,0,0,1,2.707.855l-.89,1.442a3.046,3.046,0,0,0-1.817-.641,2.937,2.937,0,0,0-2.813,3.063,2.894,2.894,0,0,0,2.813,3.063,3.29,3.29,0,0,0,1.87-.641Z" transform="translate(-1156 -668.488)" fill="#2a65c5"/>
      <path id="Caminho_13" data-name="Caminho 13" d="M1245.957,683.377v-9.011h1.834v9.011Z" transform="translate(-1186.906 -669.237)" fill="#2a65c5"/>
      <path id="Caminho_14" data-name="Caminho 14" d="M1271.341,678.17a4.631,4.631,0,1,1-4.581-4.767A4.6,4.6,0,0,1,1271.341,678.17Zm-4.6-3.111a3.08,3.08,0,1,0,2.728,3.092A2.873,2.873,0,0,0,1266.743,675.059Z" transform="translate(-1199.453 -668.487)" fill="#2a65c5"/>
      <path id="Caminho_15" data-name="Caminho 15" d="M1312.725,675.593a2.9,2.9,0,0,0-1.781-.694,1.1,1.1,0,0,0-1.229,1.069c0,.659.819.98,1.656,1.318,1.175.463,2.635,1.1,2.635,2.707,0,2.012-1.6,2.849-3.312,2.849a4.137,4.137,0,0,1-3.241-1.443l1.211-1.051a2.727,2.727,0,0,0,2.012.98c.784,0,1.5-.392,1.5-1.229,0-.694-.819-1.015-1.71-1.371-1.175-.481-2.511-1.015-2.511-2.618a2.711,2.711,0,0,1,2.992-2.707,4.246,4.246,0,0,1,2.849,1.033Z" transform="translate(-1234.762 -668.488)" fill="#2a65c5"/>
      <path id="Caminho_16" data-name="Caminho 16" d="M1190.681,655.267l-1.14-.908,2.369-3.117,1.318,1.033Z" transform="translate(-1143.003 -651.242)" fill="#2a65c5"/>
      <rect id="Ret창ngulo_50" data-name="Ret창ngulo 50" width="1.834" height="1.906" transform="translate(59.051 1.585)" fill="#2a65c5"/>
    </g>
  </g>
</svg>
